<mxfile host="65bd71144e">
    <diagram id="V8gWzwaTHkclI0KPfhMG" name="페이지-1">
        <mxGraphModel dx="1483" dy="781" grid="1" gridSize="10" guides="1" tooltips="1" connect="1" arrows="1" fold="1" page="1" pageScale="1" pageWidth="827" pageHeight="1169" math="0" shadow="0">
            <root>
                <mxCell id="0"/>
                <mxCell id="1" parent="0"/>
                <mxCell id="2" value="Generic group" style="fillColor=none;strokeColor=#5A6C86;dashed=1;verticalAlign=top;fontStyle=0;fontColor=#5A6C86;" parent="1" vertex="1">
                    <mxGeometry x="20" y="94" width="930" height="560" as="geometry"/>
                </mxCell>
                <mxCell id="4" value="              Server Instance" style="fillColor=none;strokeColor=#FF8000;verticalAlign=top;fontStyle=0;fontColor=#5A6C86;align=left;" parent="1" vertex="1">
                    <mxGeometry x="20" y="120" width="200" height="70" as="geometry"/>
                </mxCell>
                <mxCell id="5" value="" style="sketch=0;points=[[0,0,0],[0.25,0,0],[0.5,0,0],[0.75,0,0],[1,0,0],[0,1,0],[0.25,1,0],[0.5,1,0],[0.75,1,0],[1,1,0],[0,0.25,0],[0,0.5,0],[0,0.75,0],[1,0.25,0],[1,0.5,0],[1,0.75,0]];outlineConnect=0;fontColor=#232F3E;gradientColor=#F78E04;gradientDirection=north;fillColor=#D05C17;strokeColor=#ffffff;dashed=0;verticalLabelPosition=bottom;verticalAlign=top;align=center;html=1;fontSize=12;fontStyle=0;aspect=fixed;shape=mxgraph.aws4.resourceIcon;resIcon=mxgraph.aws4.ec2;" parent="1" vertex="1">
                    <mxGeometry x="20" y="120" width="40" height="40" as="geometry"/>
                </mxCell>
                <mxCell id="6" value="              DB Instance" style="fillColor=none;strokeColor=#3333FF;verticalAlign=top;fontStyle=0;fontColor=#5A6C86;align=left;" parent="1" vertex="1">
                    <mxGeometry x="250" y="120" width="200" height="70" as="geometry"/>
                </mxCell>
                <mxCell id="7" value="" style="sketch=0;points=[[0,0,0],[0.25,0,0],[0.5,0,0],[0.75,0,0],[1,0,0],[0,1,0],[0.25,1,0],[0.5,1,0],[0.75,1,0],[1,1,0],[0,0.25,0],[0,0.5,0],[0,0.75,0],[1,0.25,0],[1,0.5,0],[1,0.75,0]];outlineConnect=0;fontColor=#232F3E;gradientColor=#4D72F3;gradientDirection=north;fillColor=#3334B9;strokeColor=#ffffff;dashed=0;verticalLabelPosition=bottom;verticalAlign=top;align=center;html=1;fontSize=12;fontStyle=0;aspect=fixed;shape=mxgraph.aws4.resourceIcon;resIcon=mxgraph.aws4.database;" parent="1" vertex="1">
                    <mxGeometry x="250" y="120" width="40" height="40" as="geometry"/>
                </mxCell>
                <mxCell id="8" value="              Cache Cluster" style="fillColor=none;strokeColor=#3399FF;verticalAlign=top;fontStyle=0;fontColor=#5A6C86;align=left;" parent="1" vertex="1">
                    <mxGeometry x="480" y="120" width="200" height="70" as="geometry"/>
                </mxCell>
                <mxCell id="10" value="" style="sketch=0;points=[[0,0,0],[0.25,0,0],[0.5,0,0],[0.75,0,0],[1,0,0],[0,1,0],[0.25,1,0],[0.5,1,0],[0.75,1,0],[1,1,0],[0,0.25,0],[0,0.5,0],[0,0.75,0],[1,0.25,0],[1,0.5,0],[1,0.75,0]];outlineConnect=0;fontColor=#232F3E;gradientColor=#4D72F3;gradientDirection=north;fillColor=#3334B9;strokeColor=#ffffff;dashed=0;verticalLabelPosition=bottom;verticalAlign=top;align=center;html=1;fontSize=12;fontStyle=0;aspect=fixed;shape=mxgraph.aws4.resourceIcon;resIcon=mxgraph.aws4.elasticache;" parent="1" vertex="1">
                    <mxGeometry x="480" y="120" width="40" height="40" as="geometry"/>
                </mxCell>
                <mxCell id="11" value="              Queue Cluster" style="fillColor=none;strokeColor=#FF3333;verticalAlign=top;fontStyle=0;fontColor=#5A6C86;align=left;" parent="1" vertex="1">
                    <mxGeometry x="710" y="120" width="200" height="70" as="geometry"/>
                </mxCell>
                <mxCell id="12" value="" style="sketch=0;points=[[0,0,0],[0.25,0,0],[0.5,0,0],[0.75,0,0],[1,0,0],[0,1,0],[0.25,1,0],[0.5,1,0],[0.75,1,0],[1,1,0],[0,0.25,0],[0,0.5,0],[0,0.75,0],[1,0.25,0],[1,0.5,0],[1,0.75,0]];outlineConnect=0;fontColor=#232F3E;gradientColor=#FF4F8B;gradientDirection=north;fillColor=#BC1356;strokeColor=#ffffff;dashed=0;verticalLabelPosition=bottom;verticalAlign=top;align=center;html=1;fontSize=12;fontStyle=0;aspect=fixed;shape=mxgraph.aws4.resourceIcon;resIcon=mxgraph.aws4.sqs;" parent="1" vertex="1">
                    <mxGeometry x="710" y="120" width="40" height="40" as="geometry"/>
                </mxCell>
                <mxCell id="13" value="              지표 수집기 (Prometheus)" style="fillColor=none;strokeColor=#FF8000;verticalAlign=top;fontStyle=0;fontColor=#5A6C86;align=left;" parent="1" vertex="1">
                    <mxGeometry x="557" y="316" width="200" height="70" as="geometry"/>
                </mxCell>
                <mxCell id="14" value="              지표 수집기 ( Cloud Watch )" style="fillColor=none;strokeColor=#FF8000;verticalAlign=top;fontStyle=0;fontColor=#5A6C86;align=left;" parent="1" vertex="1">
                    <mxGeometry x="138" y="354" width="200" height="70" as="geometry"/>
                </mxCell>
                <mxCell id="19" value="" style="sketch=0;points=[[0,0,0],[0.25,0,0],[0.5,0,0],[0.75,0,0],[1,0,0],[0,1,0],[0.25,1,0],[0.5,1,0],[0.75,1,0],[1,1,0],[0,0.25,0],[0,0.5,0],[0,0.75,0],[1,0.25,0],[1,0.5,0],[1,0.75,0]];points=[[0,0,0],[0.25,0,0],[0.5,0,0],[0.75,0,0],[1,0,0],[0,1,0],[0.25,1,0],[0.5,1,0],[0.75,1,0],[1,1,0],[0,0.25,0],[0,0.5,0],[0,0.75,0],[1,0.25,0],[1,0.5,0],[1,0.75,0]];outlineConnect=0;fontColor=#232F3E;gradientColor=#F34482;gradientDirection=north;fillColor=#BC1356;strokeColor=#ffffff;dashed=0;verticalLabelPosition=bottom;verticalAlign=top;align=center;html=1;fontSize=12;fontStyle=0;aspect=fixed;shape=mxgraph.aws4.resourceIcon;resIcon=mxgraph.aws4.cloudwatch_2;" parent="1" vertex="1">
                    <mxGeometry x="138" y="354" width="40" height="40" as="geometry"/>
                </mxCell>
                <mxCell id="20" value="" style="shape=image;verticalLabelPosition=bottom;verticalAlign=top;imageAspect=0;aspect=fixed;image=data:image/svg+xml,PHN2ZyB3aWR0aD0iNjRweCIgaGVpZ2h0PSI2NHB4IiB2aWV3Qm94PSIwIDAgNjQgNjQiIHZlcnNpb249IjEuMSIgeG1sbnM9Imh0dHA6Ly93d3cudzMub3JnLzIwMDAvc3ZnIiB4bWxuczp4bGluaz0iaHR0cDovL3d3dy53My5vcmcvMTk5OS94bGluayI+CiAgICA8dGl0bGU+SWNvbi1BcmNoaXRlY3R1cmUvNDgvQXJjaF9BbWF6b24tTWFuYWdlZC1TZXJ2aWNlLWZvci1Qcm9tZXRoZXVzXzQ4PC90aXRsZT4KICAgIDxnIGlkPSJJY29uLUFyY2hpdGVjdHVyZS80OC9BcmNoX0FtYXpvbi1NYW5hZ2VkLVNlcnZpY2UtZm9yLVByb21ldGhldXNfNDgiIHN0cm9rZT0ibm9uZSIgc3Ryb2tlLXdpZHRoPSIxIiBmaWxsPSJub25lIiBmaWxsLXJ1bGU9ImV2ZW5vZGQiPgogICAgICAgIDxnIGlkPSJJY29uLUFyY2hpdGVjdHVyZS1CRy80OC9NYW5hZ2VtZW50LUdvdmVybmFuY2UiIGZpbGw9IiNFNzE1N0IiPgogICAgICAgICAgICA8cmVjdCBpZD0iUmVjdGFuZ2xlIiB4PSIwIiB5PSIwIiB3aWR0aD0iNjQiIGhlaWdodD0iNjQiPjwvcmVjdD4KICAgICAgICA8L2c+CiAgICAgICAgPGcgaWQ9Ikljb24tU2VydmljZS80OC9BbWF6b24tTWFuYWdlZC1TZXJ2aWNlLWZvci1Qcm9tZXRoZXVzXzQ4IiB0cmFuc2Zvcm09InRyYW5zbGF0ZSgxNi4wMDAwMDAsIDEwLjAwMDAwMCkiIGZpbGw9IiNGRkZGRkYiPgogICAgICAgICAgICA8cGF0aCBkPSJNMjYsMTQgQzI0Ljg5NywxNCAyNCwxMy4xMDMgMjQsMTIgQzI0LDEwLjg5NyAyNC44OTcsMTAgMjYsMTAgQzI3LjEwMywxMCAyOCwxMC44OTcgMjgsMTIgQzI4LDEzLjEwMyAyNy4xMDMsMTQgMjYsMTQgTDI2LDE0IFogTTE2LDQgQzE2LDIuODk3IDE2Ljg5NywyIDE4LDIgQzE5LjEwMywyIDIwLDIuODk3IDIwLDQgQzIwLDUuMTAzIDE5LjEwMyw2IDE4LDYgQzE2Ljg5Nyw2IDE2LDUuMTAzIDE2LDQgTDE2LDQgWiBNMTIsMjAgQzEwLjg5NywyMCAxMCwxOS4xMDMgMTAsMTggQzEwLDE2Ljg5NyAxMC44OTcsMTYgMTIsMTYgQzEzLjEwMywxNiAxNCwxNi44OTcgMTQsMTggQzE0LDE5LjEwMyAxMy4xMDMsMjAgMTIsMjAgTDEyLDIwIFogTTIsMTEgQzIsOS44OTcgMi44OTcsOSA0LDkgQzUuMTAzLDkgNiw5Ljg5NyA2LDExIEM2LDEyLjEwMyA1LjEwMywxMyA0LDEzIEMyLjg5NywxMyAyLDEyLjEwMyAyLDExIEwyLDExIFogTTI2LDggQzI1LjI2MSw4IDI0LjU3Niw4LjIxNSAyMy45OCw4LjU2NyBMMjEuNDM0LDYuMDE5IEMyMS43ODQsNS40MjQgMjIsNC43NCAyMiw0IEMyMiwxLjc5NCAyMC4yMDYsMCAxOCwwIEMxNS43OTQsMCAxNCwxLjc5NCAxNCw0IEMxNCw1LjM2NSAxNC42ODksNi41NyAxNS43MzYsNy4yOTIgTDEyLjM2MywxNC4wMzcgQzEyLjI0MiwxNC4wMjUgMTIuMTI1LDE0IDEyLDE0IEMxMS4wMDMsMTQgMTAuMTAxLDE0LjM4IDkuMzk5LDE0Ljk4NSBMNy40MzQsMTMuMDE5IEM3Ljc4NCwxMi40MjQgOCwxMS43NCA4LDExIEM4LDguNzk0IDYuMjA2LDcgNCw3IEMxLjc5NCw3IDAsOC43OTQgMCwxMSBDMCwxMy4yMDYgMS43OTQsMTUgNCwxNSBDNC43MzksMTUgNS40MjQsMTQuNzg1IDYuMDIsMTQuNDMzIEw4LjI0NywxNi42NjEgQzguMDk3LDE3LjA4MiA4LDE3LjUyOCA4LDE4IEM4LDIwLjIwNiA5Ljc5NCwyMiAxMiwyMiBDMTQuMjA2LDIyIDE2LDIwLjIwNiAxNiwxOCBDMTYsMTYuNjM1IDE1LjMxMSwxNS40MyAxNC4yNjQsMTQuNzA4IEwxNy42MzcsNy45NjMgQzE3Ljc1OCw3Ljk3NSAxNy44NzUsOCAxOCw4IEMxOC43MzksOCAxOS40MjQsNy43ODUgMjAuMDIsNy40MzMgTDIyLjU2Niw5Ljk4MSBDMjIuMjE2LDEwLjU3NiAyMiwxMS4yNiAyMiwxMiBDMjIsMTQuMjA2IDIzLjc5NCwxNiAyNiwxNiBDMjguMjA2LDE2IDMwLDE0LjIwNiAzMCwxMiBDMzAsOS43OTQgMjguMjA2LDggMjYsOCBMMjYsOCBaIE0yMC41MzEsMzAgTDEwLjQ2OSwzMCBMNy4xMzUsMjYgTDIzLjg2NSwyNiBMMjAuNTMxLDMwIFogTTE3LjIxOSw0MiBMMTMuNzgxLDQyIEwxMS4yOCwzMiBMMTkuNzIsMzIgTDE3LjIxOSw0MiBaIE0yNiwyNCBMNSwyNCBDNC42MTIsMjQgNC4yNTksMjQuMjI1IDQuMDk1LDI0LjU3NiBDMy45MywyNC45MjcgMy45ODMsMjUuMzQyIDQuMjMxLDI1LjY0IEw5LjA4NSwzMS40NjQgTDEyLjAzLDQzLjI0MyBDMTIuMTQyLDQzLjY4NyAxMi41NDEsNDQgMTMsNDQgTDE4LDQ0IEMxOC40NTksNDQgMTguODU4LDQzLjY4NyAxOC45Nyw0My4yNDMgTDIxLjkxNSwzMS40NjQgTDI2Ljc2OSwyNS42NCBDMjcuMDE3LDI1LjM0MiAyNy4wNywyNC45MjcgMjYuOTA1LDI0LjU3NiBDMjYuNzQxLDI0LjIyNSAyNi4zODgsMjQgMjYsMjQgTDI2LDI0IFoiIGlkPSJGaWxsLTEiPjwvcGF0aD4KICAgICAgICA8L2c+CiAgICA8L2c+Cjwvc3ZnPg==;strokeColor=#FF3333;" parent="1" vertex="1">
                    <mxGeometry x="557" y="316" width="40" height="40" as="geometry"/>
                </mxCell>
                <mxCell id="21" value="                 Agent" style="fillColor=#EFF0F3;strokeColor=none;dashed=0;verticalAlign=top;fontStyle=0;fontColor=#232F3D;align=left;" parent="1" vertex="1">
                    <mxGeometry x="110" y="150" width="110" height="40" as="geometry"/>
                </mxCell>
                <mxCell id="22" value="" style="shape=image;verticalLabelPosition=bottom;verticalAlign=top;imageAspect=0;aspect=fixed;image=data:image/svg+xml,PHN2ZyB3aWR0aD0iNjRweCIgaGVpZ2h0PSI2NHB4IiB2aWV3Qm94PSIwIDAgNjQgNjQiIHZlcnNpb249IjEuMSIgeG1sbnM9Imh0dHA6Ly93d3cudzMub3JnLzIwMDAvc3ZnIiB4bWxuczp4bGluaz0iaHR0cDovL3d3dy53My5vcmcvMTk5OS94bGluayI+CiAgICA8dGl0bGU+SWNvbi1BcmNoaXRlY3R1cmUvNDgvQXJjaF9BV1MtQmFja2ludC1BZ2VudF80ODwvdGl0bGU+CiAgICA8ZyBpZD0iSWNvbi1BcmNoaXRlY3R1cmUvNDgvQXJjaF9BV1MtQmFja2ludC1BZ2VudF80OCIgc3Ryb2tlPSJub25lIiBzdHJva2Utd2lkdGg9IjEiIGZpbGw9Im5vbmUiIGZpbGwtcnVsZT0iZXZlbm9kZCI+CiAgICAgICAgPGcgaWQ9Ikljb24tQXJjaGl0ZWN0dXJlLUJHLzQ4L01hbmFnZW1lbnQtR292ZXJuYW5jZSIgZmlsbD0iI0U3MTU3QiI+CiAgICAgICAgICAgIDxyZWN0IGlkPSJSZWN0YW5nbGUiIHg9IjAiIHk9IjAiIHdpZHRoPSI2NCIgaGVpZ2h0PSI2NCI+PC9yZWN0PgogICAgICAgIDwvZz4KICAgICAgICA8ZyBpZD0iSWNvbi1TZXJ2aWNlLzQ4L0FXUy1CYWNraW50LUFnZW50XzQ4IiB0cmFuc2Zvcm09InRyYW5zbGF0ZSgxMC4wMDAyNzUsIDkuOTk5ODU4KSIgZmlsbD0iI0ZGRkZGRiI+CiAgICAgICAgICAgIDxwYXRoIGQ9Ik04LjE5MzYyNTAxLDM0LjU4MDc0MTkgTDE1LjI1MDYyNSwzNC41ODA3NDE5IEwxNS4yNTA2MjUsMzYuNTgwNzQxOSBMOC4xOTM2MjUwMSwzNi41ODA3NDE5IEMzLjk1NzYyNTAxLDM2LjU4MDc0MTkgMC42MjE2MjUwMDUsMzMuOTY0NzQxOSAwLjA4MjYyNTAwNTMsMzAuMjE4NzQxOSBDLTAuMjQ5Mzc0OTk1LDI3LjkwMDc0MTkgMC40Mjg2MjUwMDUsMjUuNTY4NzQxOSAxLjk0NTYyNTAxLDIzLjgxODc0MTkgQzMuMjU2NjI1MDEsMjIuMzA3NzQxOSA1LjA3MzYyNTAxLDIxLjM1MTc0MTkgNy4wMzY2MjUwMSwyMS4xMTk3NDE5IEM2Ljk5NjYyNTAxLDIwLjc2MDc0MTkgNi45NzU2MjUwMSwyMC40MDM3NDE5IDYuOTc1NjI1MDEsMjAuMDUwNzQxOSBDNi45NzU2MjUwMSwxNi4yMzk3NDE5IDkuMTk1NjI1MDEsMTIuNzA1NzQxOSAxMi42MzA2MjUsMTEuMDQ3NzQxOSBMMTMuNDk5NjI1LDEyLjg0OTc0MTkgQzEwLjc1MTYyNSwxNC4xNzU3NDE5IDguOTc1NjI1MDEsMTcuMDAxNzQxOSA4Ljk3NTYyNTAxLDIwLjA1MDc0MTkgQzguOTc1NjI1MDEsMjAuNjM2NzQxOSA5LjA0NzYyNTAxLDIxLjI0Mjc0MTkgOS4xODc2MjUwMSwyMS44NTE3NDE5IEM5LjI1NjYyNTAxLDIyLjE1NDc0MTkgOS4xODE2MjUwMSwyMi40NzM3NDE5IDguOTgzNjI1MDEsMjIuNzEyNzQxOSBDOC43ODU2MjUwMSwyMi45NTM3NDE5IDguNDc1NjI1MDEsMjMuMDg2NzQxOSA4LjE3NTYyNTAxLDIzLjA3NTc0MTkgQzguMTYwNjI1MDEsMjMuMDc1NzQxOSA4LjA0NzYyNTAxLDIzLjA2Nzc0MTkgOC4wMzI2MjUwMSwyMy4wNjc3NDE5IEM2LjIzMTYyNTAxLDIzLjA2Nzc0MTkgNC41OTA2MjUwMSwyMy44MjA3NDE5IDMuNDU2NjI1MDEsMjUuMTI4NzQxOSBDMi4zMDM2MjUwMSwyNi40NTg3NDE5IDEuODA4NjI1MDEsMjguMTY1NzQxOSAyLjA2MjYyNTAxLDI5LjkzNDc0MTkgQzIuNTIzNjI1MDEsMzMuMTQzNzQxOSA1LjQ3NDYyNTAxLDM0LjU4MDc0MTkgOC4xOTM2MjUwMSwzNC41ODA3NDE5IEw4LjE5MzYyNTAxLDM0LjU4MDc0MTkgWiBNNDQuODcxNjI1LDI3Ljk5Nzc0MTkgQzQ0Ljg3MTYyNSwzMS40Njc3NDE5IDQyLjkzMjYyNSwzNC41NzA3NDE5IDM5LjgxMTYyNSwzNi4wOTQ3NDE5IEwzOC45MzQ2MjUsMzQuMjk3NzQxOSBDNDEuMzYyNjI1LDMzLjExMTc0MTkgNDIuODcxNjI1LDMwLjY5Nzc0MTkgNDIuODcxNjI1LDI3Ljk5Nzc0MTkgQzQyLjg3MTYyNSwyNC4xMzM3NDE5IDM5LjcyNzYyNSwyMC45OTA3NDE5IDM1Ljg2NDYyNSwyMC45OTA3NDE5IEMzNS4zODM2MjUsMjAuOTkwNzQxOSAzNC44OTg2MjUsMjEuMDQwNzQxOSAzNC40MjE2MjUsMjEuMTQwNzQxOSBDMzMuOTU5NjI1LDIxLjIzOTc0MTkgMzMuNDkxNjI1LDIwLjk5Njc0MTkgMzMuMzAwNjI1LDIwLjU2Mjc0MTkgQzMzLjAwNTYyNSwxOS44ODc3NDE5IDMyLjQyOTYyNSwxOS4zODE3NDE5IDMxLjcyMzYyNSwxOS4xNzI3NDE5IEMzMS4zMjM2MjUsMTkuMDU0NzQxOSAzMS4wMzg2MjUsMTguNjk5NzQxOSAzMS4wMDg2MjUsMTguMjgyNzQxOSBDMzAuODE0NjI1LDE1LjQ2Njc0MTkgMjguNDUyNjI1LDEzLjI1OTc0MTkgMjUuNjMwNjI1LDEzLjI1OTc0MTkgQzI0LjczMTYyNSwxMy4yNTk3NDE5IDIzLjg0MjYyNSwxMy40ODQ3NDE5IDIzLjA2MDYyNSwxMy45MDk3NDE5IEMyMi43MDQ2MjUsMTQuMTAyNzQxOSAyMi4yNjk2MjUsMTQuMDYyNzQxOSAyMS45NTY2MjUsMTMuODA5NzQxOSBDMjAuNzI1NjI1LDEyLjgxOTc0MTkgMTkuMjUyNjI1LDEyLjIyMDc0MTkgMTcuNjk0NjI1LDEyLjA3ODc0MTkgTDE3Ljg3NjYyNSwxMC4wODY3NDE5IEMxOS42MTU2MjUsMTAuMjQ1NzQxOSAyMS4yNjk2MjUsMTAuODU3NzQxOSAyMi42OTc2MjUsMTEuODY0NzQxOSBDMjMuNjE4NjI1LDExLjQ2Nzc0MTkgMjQuNjIwNjI1LDExLjI1OTc0MTkgMjUuNjMwNjI1LDExLjI1OTc0MTkgQzI5LjI4MDYyNSwxMS4yNTk3NDE5IDMyLjM2OTYyNSwxMy45NTE3NDE5IDMyLjkzMDYyNSwxNy40OTc3NDE5IEMzMy42Njk2MjUsMTcuODQ0NzQxOSAzNC4yOTY2MjUsMTguMzg0NzQxOSAzNC43NDk2MjUsMTkuMDYwNzQxOSBDMzUuMTIwNjI1LDE5LjAxNDc0MTkgMzUuNDkzNjI1LDE4Ljk5MDc0MTkgMzUuODY0NjI1LDE4Ljk5MDc0MTkgQzM2LjY3NTYyNSwxOC45OTA3NDE5IDM3LjQ1OTYyNSwxOS4xMDg3NDE5IDM4LjIwNzYyNSwxOS4zMTA3NDE5IEM0MS4yMDc2MjUsMTMuOTM1NzQxOSAzOS41MDM2MjUsNy4wNzY3NDE4NSAzNC4yMjg2MjUsMy43NzI3NDE4NSBDMjguNzg1NjI1LDAuMzYxNzQxODUzIDIxLjU4MjYyNSwyLjAxNzc0MTg1IDE4LjE3MzYyNSw3LjQ2MTc0MTg1IEMxNi4wOTM2MjUsMTAuNzc5NzQxOSAxNS44NTk2MjUsMTQuOTM0NzQxOSAxNy40NzE2MjUsMTguNDc3NzQxOSBMMTkuMzQzNjI1LDE1LjQwMTc0MTkgTDIxLjA1MjYyNSwxNi40NDE3NDE5IEwxNy40MjA2MjUsMjIuNDA5NzQxOSBMMTEuNDUyNjI1LDE4Ljc3Nzc0MTkgTDEyLjQ5MTYyNSwxNy4wNjg3NDE5IEwxNS40NDA2MjUsMTguODYzNzQxOSBDMTMuNzcwNjI1LDE0LjgxMjc0MTkgMTQuMTMwNjI1LDEwLjE0ODc0MTkgMTYuNDc3NjI1LDYuMzk5NzQxODUgQzIwLjQ3MzYyNSwwLjAyMTc0MTg1MzMgMjguOTEzNjI1LC0xLjkxNjI1ODE1IDM1LjI5MTYyNSwyLjA3Nzc0MTg1IEM0MS4zOTI2MjUsNS44OTk3NDE4NSA0My40MTc2MjUsMTMuNzg0NzQxOSA0MC4wODU2MjUsMjAuMDQ1NzQxOSBDNDIuOTI4NjI1LDIxLjU2MTc0MTkgNDQuODcxNjI1LDI0LjU1NTc0MTkgNDQuODcxNjI1LDI3Ljk5Nzc0MTkgTDQ0Ljg3MTYyNSwyNy45OTc3NDE5IFogTTM0Ljg1MTYyNSwzNy42Njc3NDE5IEwzNC4wODQ2MjUsMzcuMzg5NzQxOSBDMzMuNTAwNjI1LDM3LjE3Njc0MTkgMzIuODQ4NjI1LDM3LjM2ODc0MTkgMzIuNDcwNjI1LDM3Ljg2ODc0MTkgQzMyLjIzMDYyNSwzOC4xODQ3NDE5IDMxLjk2MTYyNSwzOC40ODA3NDE5IDMxLjY2OTYyNSwzOC43NDc3NDE5IEMzMS4yMDY2MjUsMzkuMTcwNzQxOSAzMS4wNzM2MjUsMzkuODMyNzQxOSAzMS4zMzY2MjUsNDAuMzkzNzQxOSBMMzEuNjgxNjI1LDQxLjEzMzc0MTkgTDI5Ljg2MTYyNSw0MS45ODM3NDE5IEwyOS41MTU2MjUsNDEuMjQyNzQxOSBDMjkuMjUzNjI1LDQwLjY4Mjc0MTkgMjguNjY3NjI1LDQwLjM1NTc0MTkgMjguMDQwNjI1LDQwLjQ0Mzc0MTkgQzI3LjY0ODYyNSw0MC40OTU3NDE5IDI3LjI1MDYyNSw0MC41MTQ3NDE5IDI2Ljg1MjYyNSw0MC40OTQ3NDE5IEMyNi4yMzA2MjUsNDAuNDYxNzQxOSAyNS42NjM2MjUsNDAuODM2NzQxOSAyNS40NDk2MjUsNDEuNDIzNzQxOSBMMjUuMTcwNjI1LDQyLjE5Mjc0MTkgTDIzLjI4MjYyNSw0MS41MDY3NDE5IEwyMy41NjY2MjUsNDAuNzI1NzQxOSBDMjMuNzc2NjI1LDQwLjE0Mzc0MTkgMjMuNTg2NjI1LDM5LjQ5Nzc0MTkgMjMuMDkxNjI1LDM5LjExODc0MTkgQzIyLjc3OTYyNSwzOC44Nzc3NDE5IDIyLjQ4NzYyNSwzOC42MDk3NDE5IDIyLjIyMzYyNSwzOC4zMTk3NDE5IEMyMS44MDE2MjUsMzcuODUzNzQxOSAyMS4xMzc2MjUsMzcuNzE4NzQxOSAyMC41NzM2MjUsMzcuOTgyNzQxOSBMMTkuODE2NjI1LDM4LjMzNjc0MTkgTDE4Ljk2NTYyNSwzNi41MTc3NDE5IEwxOS43NDE2MjUsMzYuMTU1NzQxOSBDMjAuMjk5NjI1LDM1Ljg5Mzc0MTkgMjAuNjIyNjI1LDM1LjMwMzc0MTkgMjAuNTQyNjI1LDM0LjY4Mzc0MTkgQzIwLjQ5MjYyNSwzNC4zMDE3NDE5IDIwLjQ3NTYyNSwzMy45MTA3NDE5IDIwLjQ5NDYyNSwzMy41MjE3NDE5IEMyMC41MjM2MjUsMzIuODk1NzQxOSAyMC4xNTE2MjUsMzIuMzMxNzQxOSAxOS41NjU2MjUsMzIuMTE4NzQxOSBMMTguNzU3NjI1LDMxLjgyNDc0MTkgTDE5LjQ0MzYyNSwyOS45MzY3NDE5IEwyMC4yNjQ2MjUsMzAuMjM1NzQxOSBDMjAuODQ1NjI1LDMwLjQ0NTc0MTkgMjEuNDkwNjI1LDMwLjI1NTc0MTkgMjEuODcyNjI1LDI5Ljc2MDc0MTkgQzIyLjEwNTYyNSwyOS40NTU3NDE5IDIyLjM2NzYyNSwyOS4xNjk3NDE5IDIyLjY1MTYyNSwyOC45MDk3NDE5IEMyMy4xMTM2MjUsMjguNDg2NzQxOSAyMy4yNDY2MjUsMjcuODI0NzQxOSAyMi45ODM2MjUsMjcuMjY0NzQxOSBMMjIuNjEzNjI1LDI2LjQ3Mjc0MTkgTDI0LjQzMjYyNSwyNS42MjE3NDE5IEwyNC44MDM2MjUsMjYuNDE1NzQxOSBDMjUuMDY2NjI1LDI2Ljk3NTc0MTkgMjUuNjU3NjI1LDI3LjI5OTc0MTkgMjYuMjc4NjI1LDI3LjIxNDc0MTkgQzI2LjY2MjYyNSwyNy4xNjM3NDE5IDI3LjA1MDYyNSwyNy4xNDQ3NDE5IDI3LjQzMDYyNSwyNy4xNjI3NDE5IEMyOC4wODE2MjUsMjcuMTk3NzQxOSAyOC42MTY2MjUsMjYuODE0NzQxOSAyOC44Mjc2MjUsMjYuMjMyNzQxOSBMMjkuMTI0NjI1LDI1LjQxMjc0MTkgTDMxLjAxMjYyNSwyNi4wOTg3NDE5IEwzMC43MTg2MjUsMjYuOTA4NzQxOSBDMzAuNTA3NjI1LDI3LjQ5Mzc0MTkgMzAuNzAxNjI1LDI4LjE0MDc0MTkgMzEuMjAwNjI1LDI4LjUxODc0MTkgQzMxLjUwNjYyNSwyOC43NTE3NDE5IDMxLjc5ODYyNSwyOS4wMTU3NDE5IDMyLjA2MTYyNSwyOS4zMDA3NDE5IEMzMi40ODI2MjUsMjkuNzU4NzQxOSAzMy4xNDA2MjUsMjkuODkyNzQxOSAzMy43MDQ2MjUsMjkuNjI5NzQxOSBMMzQuNDc3NjI1LDI5LjI2ODc0MTkgTDM1LjMyODYyNSwzMS4wODc3NDE5IEwzNC41NzA2MjUsMzEuNDQxNzQxOSBDMzQuMDA2NjI1LDMxLjcwNTc0MTkgMzMuNjg0NjI1LDMyLjMwMTc0MTkgMzMuNzcwNjI1LDMyLjkyMTc0MTkgQzMzLjgyNDYyNSwzMy4zMTQ3NDE5IDMzLjg0MjYyNSwzMy43MTE3NDE5IDMzLjgyNzYyNSwzNC4xMDA3NDE5IEMzMy44MDA2MjUsMzQuNzIzNzQxOSAzNC4xNzM2MjUsMzUuMjg0NzQxOSAzNC43NTY2MjUsMzUuNDk2NzQxOSBMMzUuNTM3NjI1LDM1Ljc3OTc0MTkgTDM0Ljg1MTYyNSwzNy42Njc3NDE5IFogTTM2Ljc3MDYyNSwzNC4xMDA3NDE5IEwzNS44MzI2MjUsMzMuNzU5NzQxOSBDMzUuODMwNjI1LDMzLjUzMTc0MTkgMzUuODE5NjI1LDMzLjMwMzc0MTkgMzUuNzk5NjI1LDMzLjA3NTc0MTkgTDM2LjcwNjYyNSwzMi42NTE3NDE5IEMzNy40MTI2MjUsMzIuMzIxNzQxOSAzNy43MTg2MjUsMzEuNDc4NzQxOSAzNy4zODg2MjUsMzAuNzcyNzQxOSBMMzYuMDQyNjI1LDI3Ljg5MDc0MTkgQzM1LjcxMzYyNSwyNy4xODQ3NDE5IDM0Ljg3MDYyNSwyNi44Nzk3NDE5IDM0LjE2MjYyNSwyNy4yMDc3NDE5IEwzMy4yMzY2MjUsMjcuNjQxNzQxOSBDMzMuMDc3NjI1LDI3LjQ4NDc0MTkgMzIuOTEzNjI1LDI3LjMzNTc0MTkgMzIuNzQzNjI1LDI3LjE5Mjc0MTkgTDMzLjA5MTYyNSwyNi4yMjk3NDE5IEMzMy4yMjA2MjUsMjUuODc0NzQxOSAzMy4yMDQ2MjUsMjUuNDkxNzQxOSAzMy4wNDU2MjUsMjUuMTQ5NzQxOSBDMzIuODg1NjI1LDI0LjgwNzc0MTkgMzIuNjAyNjI1LDI0LjU0Nzc0MTkgMzIuMjQ2NjI1LDI0LjQxODc0MTkgTDI5LjI1NTYyNSwyMy4zMzI3NDE5IEMyOC41MjI2MjUsMjMuMDY2NzQxOSAyNy43MTI2MjUsMjMuNDQ2NzQxOSAyNy40NDQ2MjUsMjQuMTc4NzQxOSBMMjcuMDg5NjI1LDI1LjE1Njc0MTkgQzI2Ljg3MjYyNSwyNS4xNTg3NDE5IDI2LjY1NDYyNSwyNS4xNjg3NDE5IDI2LjQzNzYyNSwyNS4xODY3NDE5IEwyNi4wMjc2MjUsMjQuMzA5NzQxOSBDMjUuNjgwNjI1LDIzLjU2Nzc0MTkgMjQuNzkzNjI1LDIzLjI0Njc0MTkgMjQuMDUwNjI1LDIzLjU5Mjc0MTkgTDIxLjIzNTYyNSwyNC45MDg3NDE5IEMyMC41Mjk2MjUsMjUuMjM3NzQxOSAyMC4yMjI2MjUsMjYuMDgwNzQxOSAyMC41NTI2MjUsMjYuNzg3NzQxOSBMMjAuOTkzNjI1LDI3LjczMDc0MTkgQzIwLjgzOTYyNSwyNy44ODU3NDE5IDIwLjY5MjYyNSwyOC4wNDY3NDE5IDIwLjU1MTYyNSwyOC4yMTE3NDE5IEwxOS41NzM2MjUsMjcuODU2NzQxOSBDMTguODM5NjI1LDI3LjU4OTc0MTkgMTguMDMxNjI1LDI3Ljk3MDc0MTkgMTcuNzYyNjI1LDI4LjcwMzc0MTkgTDE2LjY3NzYyNSwzMS42OTM3NDE5IEMxNi41NDg2MjUsMzIuMDQ4NzQxOSAxNi41NjU2MjUsMzIuNDMzNzQxOSAxNi43MjU2MjUsMzIuNzc1NzQxOSBDMTYuODg1NjI1LDMzLjExNzc0MTkgMTcuMTY5NjI1LDMzLjM3NTc0MTkgMTcuNTI0NjI1LDMzLjUwNDc0MTkgTDE4LjQ4NzYyNSwzMy44NTQ3NDE5IEMxOC40ODc2MjUsMzQuMDc3NzQxOSAxOC40OTc2MjUsMzQuMjk5NzQxOSAxOC41MTQ2MjUsMzQuNTIwNzQxOSBMMTcuNTg5NjI1LDM0Ljk1Mzc0MTkgQzE2Ljg4NDYyNSwzNS4yODI3NDE5IDE2LjU3NzYyNSwzNi4xMjM3NDE5IDE2LjkwNTYyNSwzNi44MzE3NDE5IEwxOC4yNTQ2MjUsMzkuNzE1NzQxOSBDMTguNTgzNjI1LDQwLjQyMDc0MTkgMTkuNDIzNjI1LDQwLjcyNTc0MTkgMjAuMTMyNjI1LDQwLjM5Njc0MTkgTDIxLjAzODYyNSwzOS45NzM3NDE5IEMyMS4yMDA2MjUsNDAuMTM0NzQxOSAyMS4zNjg2MjUsNDAuMjg4NzQxOSAyMS41NDM2MjUsNDAuNDM2NzQxOSBMMjEuMjAyNjI1LDQxLjM3NDc0MTkgQzIxLjA3MjYyNSw0MS43MzA3NDE5IDIxLjA4OTYyNSw0Mi4xMTQ3NDE5IDIxLjI1MDYyNSw0Mi40NTc3NDE5IEMyMS40MTA2MjUsNDIuNzk4NzQxOSAyMS42OTM2MjUsNDMuMDU3NzQxOSAyMi4wNDg2MjUsNDMuMTg2NzQxOSBMMjUuMDQwNjI1LDQ0LjI3Mjc0MTkgQzI1LjE5NzYyNSw0NC4zMjk3NDE5IDI1LjM1OTYyNSw0NC4zNTc3NDE5IDI1LjUyMTYyNSw0NC4zNTc3NDE5IEMyNS43MjY2MjUsNDQuMzU3NzQxOSAyNS45MzA2MjUsNDQuMzEyNzQxOSAyNi4xMjI2MjUsNDQuMjIzNzQxOSBDMjYuNDY0NjI1LDQ0LjA2Mjc0MTkgMjYuNzIyNjI1LDQzLjc3ODc0MTkgMjYuODQ4NjI1LDQzLjQyNjc0MTkgTDI3LjE4NDYyNSw0Mi41MDE3NDE5IEMyNy40MTg2MjUsNDIuNTAwNzQxOSAyNy42NTA2MjUsNDIuNDkxNzQxOSAyNy44ODE2MjUsNDIuNDcxNzQxOSBMMjguMjk4NjI1LDQzLjM2Mjc0MTkgQzI4LjYyODYyNSw0NC4wNjc3NDE5IDI5LjQ2ODYyNSw0NC4zNzM3NDE5IDMwLjE3NzYyNSw0NC4wNDM3NDE5IEwzMy4wNjE2MjUsNDIuNjk1NzQxOSBDMzMuNzY1NjI1LDQyLjM2NTc0MTkgMzQuMDcxNjI1LDQxLjUyMjc0MTkgMzMuNzQyNjI1LDQwLjgxNzc0MTkgTDMzLjMyNjYyNSwzOS45Mjc3NDE5IEMzMy40ODk2MjUsMzkuNzYyNzQxOSAzMy42NDY2MjUsMzkuNTkwNzQxOSAzMy43OTY2MjUsMzkuNDEyNzQxOSBMMzQuNzIxNjI1LDM5Ljc0ODc0MTkgQzM1LjQ1NDYyNSw0MC4wMTM3NDE5IDM2LjI2MzYyNSwzOS42MzM3NDE5IDM2LjUzMjYyNSwzOC45MDE3NDE5IEwzNy42MTY2MjUsMzUuOTExNzQxOSBDMzcuNzQ1NjI1LDM1LjU1Njc0MTkgMzcuNzI4NjI1LDM1LjE3Mjc0MTkgMzcuNTY5NjI1LDM0LjgzMDc0MTkgQzM3LjQxMDYyNSwzNC40ODg3NDE5IDM3LjEyNzYyNSwzNC4yMjk3NDE5IDM2Ljc3MDYyNSwzNC4xMDA3NDE5IEwzNi43NzA2MjUsMzQuMTAwNzQxOSBaIE0yOS41ODk2MjUsMzQuNzExNzQxOSBDMjkuMjI5NjI1LDM1LjcwNDc0MTkgMjguMTM3NjI1LDM2LjcyNDc0MTkgMjYuMjM2NjI1LDM2LjM2OTc0MTkgQzI0LjU1MjYyNSwzNS40MjM3NDE5IDI0LjM2OTYyNSwzMy45NDA3NDE5IDI0LjcyOTYyNSwzMi45NDc3NDE5IEMyNS4wODk2MjUsMzEuOTUzNzQxOSAyNi4xNzg2MjUsMzAuOTMyNzQxOSAyOC4wODE2MjUsMzEuMjg4NzQxOSBDMjkuNzY2NjI1LDMyLjIzMzc0MTkgMjkuOTUwNjI1LDMzLjcxNzc0MTkgMjkuNTg5NjI1LDM0LjcxMTc0MTkgTDI5LjU4OTYyNSwzNC43MTE3NDE5IFogTTI4Ljk2NzYyNSwyOS40OTM3NDE5IEMyOC44NDE2MjUsMjkuNDIzNzQxOSAyOC43MDU2MjUsMjkuMzczNzQxOSAyOC41NjM2MjUsMjkuMzQ0NzQxOSBDMjUuNTcwNjI1LDI4LjcyOTc0MTkgMjMuNTM3NjI1LDMwLjM2OTc0MTkgMjIuODQ5NjI1LDMyLjI2NDc0MTkgQzIyLjE2MjYyNSwzNC4xNjA3NDE5IDIyLjY3MTYyNSwzNi43MjA3NDE5IDI1LjM1OTYyNSwzOC4xNjk3NDE5IEwyNS4zNjA2MjUsMzguMTY5NzQxOSBDMjUuNDg5NjI1LDM4LjIzOTc0MTkgMjUuNjI2NjI1LDM4LjI4ODc0MTkgMjUuNzU2NjI1LDM4LjMxMzc0MTkgQzI2LjE5MjYyNSwzOC40MDI3NDE5IDI2LjYwNzYyNSwzOC40NDQ3NDE5IDI3LjAwMTYyNSwzOC40NDQ3NDE5IEMyOS4zMTE2MjUsMzguNDQ0NzQxOSAzMC44ODE2MjUsMzcuMDEzNzQxOSAzMS40Njk2MjUsMzUuMzkzNzQxOSBDMzIuMTU4NjI1LDMzLjQ5ODc0MTkgMzEuNjQ4NjI1LDMwLjkzNzc0MTkgMjguOTY3NjI1LDI5LjQ5Mzc0MTkgTDI4Ljk2NzYyNSwyOS40OTM3NDE5IFoiIGlkPSJBV1MtQmFja2ludC1BZ2VudF9JY29uXzQ4X1NxdWlkIj48L3BhdGg+CiAgICAgICAgPC9nPgogICAgPC9nPgo8L3N2Zz4=;strokeColor=#FF3333;" parent="1" vertex="1">
                    <mxGeometry x="110" y="150" width="40" height="40" as="geometry"/>
                </mxCell>
                <mxCell id="23" value="                 Agent" style="fillColor=#EFF0F3;strokeColor=none;dashed=0;verticalAlign=top;fontStyle=0;fontColor=#232F3D;align=left;" parent="1" vertex="1">
                    <mxGeometry x="340" y="150" width="110" height="40" as="geometry"/>
                </mxCell>
                <mxCell id="24" value="" style="shape=image;verticalLabelPosition=bottom;verticalAlign=top;imageAspect=0;aspect=fixed;image=data:image/svg+xml,PHN2ZyB3aWR0aD0iNjRweCIgaGVpZ2h0PSI2NHB4IiB2aWV3Qm94PSIwIDAgNjQgNjQiIHZlcnNpb249IjEuMSIgeG1sbnM9Imh0dHA6Ly93d3cudzMub3JnLzIwMDAvc3ZnIiB4bWxuczp4bGluaz0iaHR0cDovL3d3dy53My5vcmcvMTk5OS94bGluayI+CiAgICA8dGl0bGU+SWNvbi1BcmNoaXRlY3R1cmUvNDgvQXJjaF9BV1MtQmFja2ludC1BZ2VudF80ODwvdGl0bGU+CiAgICA8ZyBpZD0iSWNvbi1BcmNoaXRlY3R1cmUvNDgvQXJjaF9BV1MtQmFja2ludC1BZ2VudF80OCIgc3Ryb2tlPSJub25lIiBzdHJva2Utd2lkdGg9IjEiIGZpbGw9Im5vbmUiIGZpbGwtcnVsZT0iZXZlbm9kZCI+CiAgICAgICAgPGcgaWQ9Ikljb24tQXJjaGl0ZWN0dXJlLUJHLzQ4L01hbmFnZW1lbnQtR292ZXJuYW5jZSIgZmlsbD0iI0U3MTU3QiI+CiAgICAgICAgICAgIDxyZWN0IGlkPSJSZWN0YW5nbGUiIHg9IjAiIHk9IjAiIHdpZHRoPSI2NCIgaGVpZ2h0PSI2NCI+PC9yZWN0PgogICAgICAgIDwvZz4KICAgICAgICA8ZyBpZD0iSWNvbi1TZXJ2aWNlLzQ4L0FXUy1CYWNraW50LUFnZW50XzQ4IiB0cmFuc2Zvcm09InRyYW5zbGF0ZSgxMC4wMDAyNzUsIDkuOTk5ODU4KSIgZmlsbD0iI0ZGRkZGRiI+CiAgICAgICAgICAgIDxwYXRoIGQ9Ik04LjE5MzYyNTAxLDM0LjU4MDc0MTkgTDE1LjI1MDYyNSwzNC41ODA3NDE5IEwxNS4yNTA2MjUsMzYuNTgwNzQxOSBMOC4xOTM2MjUwMSwzNi41ODA3NDE5IEMzLjk1NzYyNTAxLDM2LjU4MDc0MTkgMC42MjE2MjUwMDUsMzMuOTY0NzQxOSAwLjA4MjYyNTAwNTMsMzAuMjE4NzQxOSBDLTAuMjQ5Mzc0OTk1LDI3LjkwMDc0MTkgMC40Mjg2MjUwMDUsMjUuNTY4NzQxOSAxLjk0NTYyNTAxLDIzLjgxODc0MTkgQzMuMjU2NjI1MDEsMjIuMzA3NzQxOSA1LjA3MzYyNTAxLDIxLjM1MTc0MTkgNy4wMzY2MjUwMSwyMS4xMTk3NDE5IEM2Ljk5NjYyNTAxLDIwLjc2MDc0MTkgNi45NzU2MjUwMSwyMC40MDM3NDE5IDYuOTc1NjI1MDEsMjAuMDUwNzQxOSBDNi45NzU2MjUwMSwxNi4yMzk3NDE5IDkuMTk1NjI1MDEsMTIuNzA1NzQxOSAxMi42MzA2MjUsMTEuMDQ3NzQxOSBMMTMuNDk5NjI1LDEyLjg0OTc0MTkgQzEwLjc1MTYyNSwxNC4xNzU3NDE5IDguOTc1NjI1MDEsMTcuMDAxNzQxOSA4Ljk3NTYyNTAxLDIwLjA1MDc0MTkgQzguOTc1NjI1MDEsMjAuNjM2NzQxOSA5LjA0NzYyNTAxLDIxLjI0Mjc0MTkgOS4xODc2MjUwMSwyMS44NTE3NDE5IEM5LjI1NjYyNTAxLDIyLjE1NDc0MTkgOS4xODE2MjUwMSwyMi40NzM3NDE5IDguOTgzNjI1MDEsMjIuNzEyNzQxOSBDOC43ODU2MjUwMSwyMi45NTM3NDE5IDguNDc1NjI1MDEsMjMuMDg2NzQxOSA4LjE3NTYyNTAxLDIzLjA3NTc0MTkgQzguMTYwNjI1MDEsMjMuMDc1NzQxOSA4LjA0NzYyNTAxLDIzLjA2Nzc0MTkgOC4wMzI2MjUwMSwyMy4wNjc3NDE5IEM2LjIzMTYyNTAxLDIzLjA2Nzc0MTkgNC41OTA2MjUwMSwyMy44MjA3NDE5IDMuNDU2NjI1MDEsMjUuMTI4NzQxOSBDMi4zMDM2MjUwMSwyNi40NTg3NDE5IDEuODA4NjI1MDEsMjguMTY1NzQxOSAyLjA2MjYyNTAxLDI5LjkzNDc0MTkgQzIuNTIzNjI1MDEsMzMuMTQzNzQxOSA1LjQ3NDYyNTAxLDM0LjU4MDc0MTkgOC4xOTM2MjUwMSwzNC41ODA3NDE5IEw4LjE5MzYyNTAxLDM0LjU4MDc0MTkgWiBNNDQuODcxNjI1LDI3Ljk5Nzc0MTkgQzQ0Ljg3MTYyNSwzMS40Njc3NDE5IDQyLjkzMjYyNSwzNC41NzA3NDE5IDM5LjgxMTYyNSwzNi4wOTQ3NDE5IEwzOC45MzQ2MjUsMzQuMjk3NzQxOSBDNDEuMzYyNjI1LDMzLjExMTc0MTkgNDIuODcxNjI1LDMwLjY5Nzc0MTkgNDIuODcxNjI1LDI3Ljk5Nzc0MTkgQzQyLjg3MTYyNSwyNC4xMzM3NDE5IDM5LjcyNzYyNSwyMC45OTA3NDE5IDM1Ljg2NDYyNSwyMC45OTA3NDE5IEMzNS4zODM2MjUsMjAuOTkwNzQxOSAzNC44OTg2MjUsMjEuMDQwNzQxOSAzNC40MjE2MjUsMjEuMTQwNzQxOSBDMzMuOTU5NjI1LDIxLjIzOTc0MTkgMzMuNDkxNjI1LDIwLjk5Njc0MTkgMzMuMzAwNjI1LDIwLjU2Mjc0MTkgQzMzLjAwNTYyNSwxOS44ODc3NDE5IDMyLjQyOTYyNSwxOS4zODE3NDE5IDMxLjcyMzYyNSwxOS4xNzI3NDE5IEMzMS4zMjM2MjUsMTkuMDU0NzQxOSAzMS4wMzg2MjUsMTguNjk5NzQxOSAzMS4wMDg2MjUsMTguMjgyNzQxOSBDMzAuODE0NjI1LDE1LjQ2Njc0MTkgMjguNDUyNjI1LDEzLjI1OTc0MTkgMjUuNjMwNjI1LDEzLjI1OTc0MTkgQzI0LjczMTYyNSwxMy4yNTk3NDE5IDIzLjg0MjYyNSwxMy40ODQ3NDE5IDIzLjA2MDYyNSwxMy45MDk3NDE5IEMyMi43MDQ2MjUsMTQuMTAyNzQxOSAyMi4yNjk2MjUsMTQuMDYyNzQxOSAyMS45NTY2MjUsMTMuODA5NzQxOSBDMjAuNzI1NjI1LDEyLjgxOTc0MTkgMTkuMjUyNjI1LDEyLjIyMDc0MTkgMTcuNjk0NjI1LDEyLjA3ODc0MTkgTDE3Ljg3NjYyNSwxMC4wODY3NDE5IEMxOS42MTU2MjUsMTAuMjQ1NzQxOSAyMS4yNjk2MjUsMTAuODU3NzQxOSAyMi42OTc2MjUsMTEuODY0NzQxOSBDMjMuNjE4NjI1LDExLjQ2Nzc0MTkgMjQuNjIwNjI1LDExLjI1OTc0MTkgMjUuNjMwNjI1LDExLjI1OTc0MTkgQzI5LjI4MDYyNSwxMS4yNTk3NDE5IDMyLjM2OTYyNSwxMy45NTE3NDE5IDMyLjkzMDYyNSwxNy40OTc3NDE5IEMzMy42Njk2MjUsMTcuODQ0NzQxOSAzNC4yOTY2MjUsMTguMzg0NzQxOSAzNC43NDk2MjUsMTkuMDYwNzQxOSBDMzUuMTIwNjI1LDE5LjAxNDc0MTkgMzUuNDkzNjI1LDE4Ljk5MDc0MTkgMzUuODY0NjI1LDE4Ljk5MDc0MTkgQzM2LjY3NTYyNSwxOC45OTA3NDE5IDM3LjQ1OTYyNSwxOS4xMDg3NDE5IDM4LjIwNzYyNSwxOS4zMTA3NDE5IEM0MS4yMDc2MjUsMTMuOTM1NzQxOSAzOS41MDM2MjUsNy4wNzY3NDE4NSAzNC4yMjg2MjUsMy43NzI3NDE4NSBDMjguNzg1NjI1LDAuMzYxNzQxODUzIDIxLjU4MjYyNSwyLjAxNzc0MTg1IDE4LjE3MzYyNSw3LjQ2MTc0MTg1IEMxNi4wOTM2MjUsMTAuNzc5NzQxOSAxNS44NTk2MjUsMTQuOTM0NzQxOSAxNy40NzE2MjUsMTguNDc3NzQxOSBMMTkuMzQzNjI1LDE1LjQwMTc0MTkgTDIxLjA1MjYyNSwxNi40NDE3NDE5IEwxNy40MjA2MjUsMjIuNDA5NzQxOSBMMTEuNDUyNjI1LDE4Ljc3Nzc0MTkgTDEyLjQ5MTYyNSwxNy4wNjg3NDE5IEwxNS40NDA2MjUsMTguODYzNzQxOSBDMTMuNzcwNjI1LDE0LjgxMjc0MTkgMTQuMTMwNjI1LDEwLjE0ODc0MTkgMTYuNDc3NjI1LDYuMzk5NzQxODUgQzIwLjQ3MzYyNSwwLjAyMTc0MTg1MzMgMjguOTEzNjI1LC0xLjkxNjI1ODE1IDM1LjI5MTYyNSwyLjA3Nzc0MTg1IEM0MS4zOTI2MjUsNS44OTk3NDE4NSA0My40MTc2MjUsMTMuNzg0NzQxOSA0MC4wODU2MjUsMjAuMDQ1NzQxOSBDNDIuOTI4NjI1LDIxLjU2MTc0MTkgNDQuODcxNjI1LDI0LjU1NTc0MTkgNDQuODcxNjI1LDI3Ljk5Nzc0MTkgTDQ0Ljg3MTYyNSwyNy45OTc3NDE5IFogTTM0Ljg1MTYyNSwzNy42Njc3NDE5IEwzNC4wODQ2MjUsMzcuMzg5NzQxOSBDMzMuNTAwNjI1LDM3LjE3Njc0MTkgMzIuODQ4NjI1LDM3LjM2ODc0MTkgMzIuNDcwNjI1LDM3Ljg2ODc0MTkgQzMyLjIzMDYyNSwzOC4xODQ3NDE5IDMxLjk2MTYyNSwzOC40ODA3NDE5IDMxLjY2OTYyNSwzOC43NDc3NDE5IEMzMS4yMDY2MjUsMzkuMTcwNzQxOSAzMS4wNzM2MjUsMzkuODMyNzQxOSAzMS4zMzY2MjUsNDAuMzkzNzQxOSBMMzEuNjgxNjI1LDQxLjEzMzc0MTkgTDI5Ljg2MTYyNSw0MS45ODM3NDE5IEwyOS41MTU2MjUsNDEuMjQyNzQxOSBDMjkuMjUzNjI1LDQwLjY4Mjc0MTkgMjguNjY3NjI1LDQwLjM1NTc0MTkgMjguMDQwNjI1LDQwLjQ0Mzc0MTkgQzI3LjY0ODYyNSw0MC40OTU3NDE5IDI3LjI1MDYyNSw0MC41MTQ3NDE5IDI2Ljg1MjYyNSw0MC40OTQ3NDE5IEMyNi4yMzA2MjUsNDAuNDYxNzQxOSAyNS42NjM2MjUsNDAuODM2NzQxOSAyNS40NDk2MjUsNDEuNDIzNzQxOSBMMjUuMTcwNjI1LDQyLjE5Mjc0MTkgTDIzLjI4MjYyNSw0MS41MDY3NDE5IEwyMy41NjY2MjUsNDAuNzI1NzQxOSBDMjMuNzc2NjI1LDQwLjE0Mzc0MTkgMjMuNTg2NjI1LDM5LjQ5Nzc0MTkgMjMuMDkxNjI1LDM5LjExODc0MTkgQzIyLjc3OTYyNSwzOC44Nzc3NDE5IDIyLjQ4NzYyNSwzOC42MDk3NDE5IDIyLjIyMzYyNSwzOC4zMTk3NDE5IEMyMS44MDE2MjUsMzcuODUzNzQxOSAyMS4xMzc2MjUsMzcuNzE4NzQxOSAyMC41NzM2MjUsMzcuOTgyNzQxOSBMMTkuODE2NjI1LDM4LjMzNjc0MTkgTDE4Ljk2NTYyNSwzNi41MTc3NDE5IEwxOS43NDE2MjUsMzYuMTU1NzQxOSBDMjAuMjk5NjI1LDM1Ljg5Mzc0MTkgMjAuNjIyNjI1LDM1LjMwMzc0MTkgMjAuNTQyNjI1LDM0LjY4Mzc0MTkgQzIwLjQ5MjYyNSwzNC4zMDE3NDE5IDIwLjQ3NTYyNSwzMy45MTA3NDE5IDIwLjQ5NDYyNSwzMy41MjE3NDE5IEMyMC41MjM2MjUsMzIuODk1NzQxOSAyMC4xNTE2MjUsMzIuMzMxNzQxOSAxOS41NjU2MjUsMzIuMTE4NzQxOSBMMTguNzU3NjI1LDMxLjgyNDc0MTkgTDE5LjQ0MzYyNSwyOS45MzY3NDE5IEwyMC4yNjQ2MjUsMzAuMjM1NzQxOSBDMjAuODQ1NjI1LDMwLjQ0NTc0MTkgMjEuNDkwNjI1LDMwLjI1NTc0MTkgMjEuODcyNjI1LDI5Ljc2MDc0MTkgQzIyLjEwNTYyNSwyOS40NTU3NDE5IDIyLjM2NzYyNSwyOS4xNjk3NDE5IDIyLjY1MTYyNSwyOC45MDk3NDE5IEMyMy4xMTM2MjUsMjguNDg2NzQxOSAyMy4yNDY2MjUsMjcuODI0NzQxOSAyMi45ODM2MjUsMjcuMjY0NzQxOSBMMjIuNjEzNjI1LDI2LjQ3Mjc0MTkgTDI0LjQzMjYyNSwyNS42MjE3NDE5IEwyNC44MDM2MjUsMjYuNDE1NzQxOSBDMjUuMDY2NjI1LDI2Ljk3NTc0MTkgMjUuNjU3NjI1LDI3LjI5OTc0MTkgMjYuMjc4NjI1LDI3LjIxNDc0MTkgQzI2LjY2MjYyNSwyNy4xNjM3NDE5IDI3LjA1MDYyNSwyNy4xNDQ3NDE5IDI3LjQzMDYyNSwyNy4xNjI3NDE5IEMyOC4wODE2MjUsMjcuMTk3NzQxOSAyOC42MTY2MjUsMjYuODE0NzQxOSAyOC44Mjc2MjUsMjYuMjMyNzQxOSBMMjkuMTI0NjI1LDI1LjQxMjc0MTkgTDMxLjAxMjYyNSwyNi4wOTg3NDE5IEwzMC43MTg2MjUsMjYuOTA4NzQxOSBDMzAuNTA3NjI1LDI3LjQ5Mzc0MTkgMzAuNzAxNjI1LDI4LjE0MDc0MTkgMzEuMjAwNjI1LDI4LjUxODc0MTkgQzMxLjUwNjYyNSwyOC43NTE3NDE5IDMxLjc5ODYyNSwyOS4wMTU3NDE5IDMyLjA2MTYyNSwyOS4zMDA3NDE5IEMzMi40ODI2MjUsMjkuNzU4NzQxOSAzMy4xNDA2MjUsMjkuODkyNzQxOSAzMy43MDQ2MjUsMjkuNjI5NzQxOSBMMzQuNDc3NjI1LDI5LjI2ODc0MTkgTDM1LjMyODYyNSwzMS4wODc3NDE5IEwzNC41NzA2MjUsMzEuNDQxNzQxOSBDMzQuMDA2NjI1LDMxLjcwNTc0MTkgMzMuNjg0NjI1LDMyLjMwMTc0MTkgMzMuNzcwNjI1LDMyLjkyMTc0MTkgQzMzLjgyNDYyNSwzMy4zMTQ3NDE5IDMzLjg0MjYyNSwzMy43MTE3NDE5IDMzLjgyNzYyNSwzNC4xMDA3NDE5IEMzMy44MDA2MjUsMzQuNzIzNzQxOSAzNC4xNzM2MjUsMzUuMjg0NzQxOSAzNC43NTY2MjUsMzUuNDk2NzQxOSBMMzUuNTM3NjI1LDM1Ljc3OTc0MTkgTDM0Ljg1MTYyNSwzNy42Njc3NDE5IFogTTM2Ljc3MDYyNSwzNC4xMDA3NDE5IEwzNS44MzI2MjUsMzMuNzU5NzQxOSBDMzUuODMwNjI1LDMzLjUzMTc0MTkgMzUuODE5NjI1LDMzLjMwMzc0MTkgMzUuNzk5NjI1LDMzLjA3NTc0MTkgTDM2LjcwNjYyNSwzMi42NTE3NDE5IEMzNy40MTI2MjUsMzIuMzIxNzQxOSAzNy43MTg2MjUsMzEuNDc4NzQxOSAzNy4zODg2MjUsMzAuNzcyNzQxOSBMMzYuMDQyNjI1LDI3Ljg5MDc0MTkgQzM1LjcxMzYyNSwyNy4xODQ3NDE5IDM0Ljg3MDYyNSwyNi44Nzk3NDE5IDM0LjE2MjYyNSwyNy4yMDc3NDE5IEwzMy4yMzY2MjUsMjcuNjQxNzQxOSBDMzMuMDc3NjI1LDI3LjQ4NDc0MTkgMzIuOTEzNjI1LDI3LjMzNTc0MTkgMzIuNzQzNjI1LDI3LjE5Mjc0MTkgTDMzLjA5MTYyNSwyNi4yMjk3NDE5IEMzMy4yMjA2MjUsMjUuODc0NzQxOSAzMy4yMDQ2MjUsMjUuNDkxNzQxOSAzMy4wNDU2MjUsMjUuMTQ5NzQxOSBDMzIuODg1NjI1LDI0LjgwNzc0MTkgMzIuNjAyNjI1LDI0LjU0Nzc0MTkgMzIuMjQ2NjI1LDI0LjQxODc0MTkgTDI5LjI1NTYyNSwyMy4zMzI3NDE5IEMyOC41MjI2MjUsMjMuMDY2NzQxOSAyNy43MTI2MjUsMjMuNDQ2NzQxOSAyNy40NDQ2MjUsMjQuMTc4NzQxOSBMMjcuMDg5NjI1LDI1LjE1Njc0MTkgQzI2Ljg3MjYyNSwyNS4xNTg3NDE5IDI2LjY1NDYyNSwyNS4xNjg3NDE5IDI2LjQzNzYyNSwyNS4xODY3NDE5IEwyNi4wMjc2MjUsMjQuMzA5NzQxOSBDMjUuNjgwNjI1LDIzLjU2Nzc0MTkgMjQuNzkzNjI1LDIzLjI0Njc0MTkgMjQuMDUwNjI1LDIzLjU5Mjc0MTkgTDIxLjIzNTYyNSwyNC45MDg3NDE5IEMyMC41Mjk2MjUsMjUuMjM3NzQxOSAyMC4yMjI2MjUsMjYuMDgwNzQxOSAyMC41NTI2MjUsMjYuNzg3NzQxOSBMMjAuOTkzNjI1LDI3LjczMDc0MTkgQzIwLjgzOTYyNSwyNy44ODU3NDE5IDIwLjY5MjYyNSwyOC4wNDY3NDE5IDIwLjU1MTYyNSwyOC4yMTE3NDE5IEwxOS41NzM2MjUsMjcuODU2NzQxOSBDMTguODM5NjI1LDI3LjU4OTc0MTkgMTguMDMxNjI1LDI3Ljk3MDc0MTkgMTcuNzYyNjI1LDI4LjcwMzc0MTkgTDE2LjY3NzYyNSwzMS42OTM3NDE5IEMxNi41NDg2MjUsMzIuMDQ4NzQxOSAxNi41NjU2MjUsMzIuNDMzNzQxOSAxNi43MjU2MjUsMzIuNzc1NzQxOSBDMTYuODg1NjI1LDMzLjExNzc0MTkgMTcuMTY5NjI1LDMzLjM3NTc0MTkgMTcuNTI0NjI1LDMzLjUwNDc0MTkgTDE4LjQ4NzYyNSwzMy44NTQ3NDE5IEMxOC40ODc2MjUsMzQuMDc3NzQxOSAxOC40OTc2MjUsMzQuMjk5NzQxOSAxOC41MTQ2MjUsMzQuNTIwNzQxOSBMMTcuNTg5NjI1LDM0Ljk1Mzc0MTkgQzE2Ljg4NDYyNSwzNS4yODI3NDE5IDE2LjU3NzYyNSwzNi4xMjM3NDE5IDE2LjkwNTYyNSwzNi44MzE3NDE5IEwxOC4yNTQ2MjUsMzkuNzE1NzQxOSBDMTguNTgzNjI1LDQwLjQyMDc0MTkgMTkuNDIzNjI1LDQwLjcyNTc0MTkgMjAuMTMyNjI1LDQwLjM5Njc0MTkgTDIxLjAzODYyNSwzOS45NzM3NDE5IEMyMS4yMDA2MjUsNDAuMTM0NzQxOSAyMS4zNjg2MjUsNDAuMjg4NzQxOSAyMS41NDM2MjUsNDAuNDM2NzQxOSBMMjEuMjAyNjI1LDQxLjM3NDc0MTkgQzIxLjA3MjYyNSw0MS43MzA3NDE5IDIxLjA4OTYyNSw0Mi4xMTQ3NDE5IDIxLjI1MDYyNSw0Mi40NTc3NDE5IEMyMS40MTA2MjUsNDIuNzk4NzQxOSAyMS42OTM2MjUsNDMuMDU3NzQxOSAyMi4wNDg2MjUsNDMuMTg2NzQxOSBMMjUuMDQwNjI1LDQ0LjI3Mjc0MTkgQzI1LjE5NzYyNSw0NC4zMjk3NDE5IDI1LjM1OTYyNSw0NC4zNTc3NDE5IDI1LjUyMTYyNSw0NC4zNTc3NDE5IEMyNS43MjY2MjUsNDQuMzU3NzQxOSAyNS45MzA2MjUsNDQuMzEyNzQxOSAyNi4xMjI2MjUsNDQuMjIzNzQxOSBDMjYuNDY0NjI1LDQ0LjA2Mjc0MTkgMjYuNzIyNjI1LDQzLjc3ODc0MTkgMjYuODQ4NjI1LDQzLjQyNjc0MTkgTDI3LjE4NDYyNSw0Mi41MDE3NDE5IEMyNy40MTg2MjUsNDIuNTAwNzQxOSAyNy42NTA2MjUsNDIuNDkxNzQxOSAyNy44ODE2MjUsNDIuNDcxNzQxOSBMMjguMjk4NjI1LDQzLjM2Mjc0MTkgQzI4LjYyODYyNSw0NC4wNjc3NDE5IDI5LjQ2ODYyNSw0NC4zNzM3NDE5IDMwLjE3NzYyNSw0NC4wNDM3NDE5IEwzMy4wNjE2MjUsNDIuNjk1NzQxOSBDMzMuNzY1NjI1LDQyLjM2NTc0MTkgMzQuMDcxNjI1LDQxLjUyMjc0MTkgMzMuNzQyNjI1LDQwLjgxNzc0MTkgTDMzLjMyNjYyNSwzOS45Mjc3NDE5IEMzMy40ODk2MjUsMzkuNzYyNzQxOSAzMy42NDY2MjUsMzkuNTkwNzQxOSAzMy43OTY2MjUsMzkuNDEyNzQxOSBMMzQuNzIxNjI1LDM5Ljc0ODc0MTkgQzM1LjQ1NDYyNSw0MC4wMTM3NDE5IDM2LjI2MzYyNSwzOS42MzM3NDE5IDM2LjUzMjYyNSwzOC45MDE3NDE5IEwzNy42MTY2MjUsMzUuOTExNzQxOSBDMzcuNzQ1NjI1LDM1LjU1Njc0MTkgMzcuNzI4NjI1LDM1LjE3Mjc0MTkgMzcuNTY5NjI1LDM0LjgzMDc0MTkgQzM3LjQxMDYyNSwzNC40ODg3NDE5IDM3LjEyNzYyNSwzNC4yMjk3NDE5IDM2Ljc3MDYyNSwzNC4xMDA3NDE5IEwzNi43NzA2MjUsMzQuMTAwNzQxOSBaIE0yOS41ODk2MjUsMzQuNzExNzQxOSBDMjkuMjI5NjI1LDM1LjcwNDc0MTkgMjguMTM3NjI1LDM2LjcyNDc0MTkgMjYuMjM2NjI1LDM2LjM2OTc0MTkgQzI0LjU1MjYyNSwzNS40MjM3NDE5IDI0LjM2OTYyNSwzMy45NDA3NDE5IDI0LjcyOTYyNSwzMi45NDc3NDE5IEMyNS4wODk2MjUsMzEuOTUzNzQxOSAyNi4xNzg2MjUsMzAuOTMyNzQxOSAyOC4wODE2MjUsMzEuMjg4NzQxOSBDMjkuNzY2NjI1LDMyLjIzMzc0MTkgMjkuOTUwNjI1LDMzLjcxNzc0MTkgMjkuNTg5NjI1LDM0LjcxMTc0MTkgTDI5LjU4OTYyNSwzNC43MTE3NDE5IFogTTI4Ljk2NzYyNSwyOS40OTM3NDE5IEMyOC44NDE2MjUsMjkuNDIzNzQxOSAyOC43MDU2MjUsMjkuMzczNzQxOSAyOC41NjM2MjUsMjkuMzQ0NzQxOSBDMjUuNTcwNjI1LDI4LjcyOTc0MTkgMjMuNTM3NjI1LDMwLjM2OTc0MTkgMjIuODQ5NjI1LDMyLjI2NDc0MTkgQzIyLjE2MjYyNSwzNC4xNjA3NDE5IDIyLjY3MTYyNSwzNi43MjA3NDE5IDI1LjM1OTYyNSwzOC4xNjk3NDE5IEwyNS4zNjA2MjUsMzguMTY5NzQxOSBDMjUuNDg5NjI1LDM4LjIzOTc0MTkgMjUuNjI2NjI1LDM4LjI4ODc0MTkgMjUuNzU2NjI1LDM4LjMxMzc0MTkgQzI2LjE5MjYyNSwzOC40MDI3NDE5IDI2LjYwNzYyNSwzOC40NDQ3NDE5IDI3LjAwMTYyNSwzOC40NDQ3NDE5IEMyOS4zMTE2MjUsMzguNDQ0NzQxOSAzMC44ODE2MjUsMzcuMDEzNzQxOSAzMS40Njk2MjUsMzUuMzkzNzQxOSBDMzIuMTU4NjI1LDMzLjQ5ODc0MTkgMzEuNjQ4NjI1LDMwLjkzNzc0MTkgMjguOTY3NjI1LDI5LjQ5Mzc0MTkgTDI4Ljk2NzYyNSwyOS40OTM3NDE5IFoiIGlkPSJBV1MtQmFja2ludC1BZ2VudF9JY29uXzQ4X1NxdWlkIj48L3BhdGg+CiAgICAgICAgPC9nPgogICAgPC9nPgo8L3N2Zz4=;strokeColor=#FF3333;" parent="1" vertex="1">
                    <mxGeometry x="340" y="150" width="40" height="40" as="geometry"/>
                </mxCell>
                <mxCell id="26" value="               Load&#10;               Balancer" style="fillColor=#EFF0F3;strokeColor=none;dashed=0;verticalAlign=top;fontStyle=0;fontColor=#232F3D;align=left;" parent="1" vertex="1">
                    <mxGeometry x="182" y="274" width="110" height="40" as="geometry"/>
                </mxCell>
                <mxCell id="27" value="" style="sketch=0;points=[[0,0,0],[0.25,0,0],[0.5,0,0],[0.75,0,0],[1,0,0],[0,1,0],[0.25,1,0],[0.5,1,0],[0.75,1,0],[1,1,0],[0,0.25,0],[0,0.5,0],[0,0.75,0],[1,0.25,0],[1,0.5,0],[1,0.75,0]];outlineConnect=0;fontColor=#232F3E;gradientColor=#945DF2;gradientDirection=north;fillColor=#5A30B5;strokeColor=#ffffff;dashed=0;verticalLabelPosition=bottom;verticalAlign=top;align=center;html=1;fontSize=12;fontStyle=0;aspect=fixed;shape=mxgraph.aws4.resourceIcon;resIcon=mxgraph.aws4.elastic_load_balancing;" parent="1" vertex="1">
                    <mxGeometry x="182" y="274" width="38" height="38" as="geometry"/>
                </mxCell>
                <mxCell id="28" value="" style="edgeStyle=orthogonalEdgeStyle;html=1;endArrow=block;elbow=vertical;startArrow=none;endFill=1;strokeColor=#0000FF;rounded=0;exitX=0.5;exitY=1;exitDx=0;exitDy=0;entryX=0.5;entryY=0;entryDx=0;entryDy=0;" parent="1" source="24" target="26" edge="1">
                    <mxGeometry width="100" relative="1" as="geometry">
                        <mxPoint x="370" y="110" as="sourcePoint"/>
                        <mxPoint x="470" y="110" as="targetPoint"/>
                    </mxGeometry>
                </mxCell>
                <mxCell id="29" value="" style="edgeStyle=orthogonalEdgeStyle;html=1;endArrow=block;elbow=vertical;startArrow=none;endFill=1;strokeColor=#0000FF;rounded=0;exitX=0.5;exitY=1;exitDx=0;exitDy=0;entryX=0.5;entryY=0;entryDx=0;entryDy=0;" parent="1" source="22" target="26" edge="1">
                    <mxGeometry width="100" relative="1" as="geometry">
                        <mxPoint x="377.5" y="200" as="sourcePoint"/>
                        <mxPoint x="490" y="247" as="targetPoint"/>
                    </mxGeometry>
                </mxCell>
                <mxCell id="30" value="" style="edgeStyle=orthogonalEdgeStyle;html=1;endArrow=block;elbow=vertical;startArrow=none;endFill=1;strokeColor=#0000FF;rounded=0;exitX=0.5;exitY=1;exitDx=0;exitDy=0;entryX=0.5;entryY=0;entryDx=0;entryDy=0;" parent="1" source="26" target="14" edge="1">
                    <mxGeometry width="100" relative="1" as="geometry">
                        <mxPoint x="140" y="200" as="sourcePoint"/>
                        <mxPoint x="490" y="247" as="targetPoint"/>
                    </mxGeometry>
                </mxCell>
                <mxCell id="31" value="" style="edgeStyle=orthogonalEdgeStyle;html=1;endArrow=block;elbow=vertical;startArrow=block;startFill=1;endFill=1;strokeColor=#FF3333;rounded=0;exitX=0.5;exitY=1;exitDx=0;exitDy=0;entryX=0.5;entryY=0;entryDx=0;entryDy=0;" parent="1" source="8" target="13" edge="1">
                    <mxGeometry width="100" relative="1" as="geometry">
                        <mxPoint x="500" y="310" as="sourcePoint"/>
                        <mxPoint x="600" y="310" as="targetPoint"/>
                    </mxGeometry>
                </mxCell>
                <mxCell id="32" value="" style="edgeStyle=orthogonalEdgeStyle;html=1;endArrow=block;elbow=vertical;startArrow=block;startFill=1;endFill=1;strokeColor=#FF3333;rounded=0;exitX=0.5;exitY=1;exitDx=0;exitDy=0;entryX=0.5;entryY=0;entryDx=0;entryDy=0;" parent="1" source="11" target="13" edge="1">
                    <mxGeometry width="100" relative="1" as="geometry">
                        <mxPoint x="590" y="200" as="sourcePoint"/>
                        <mxPoint x="667" y="330" as="targetPoint"/>
                    </mxGeometry>
                </mxCell>
                <mxCell id="33" value="" style="edgeStyle=orthogonalEdgeStyle;html=1;endArrow=block;elbow=vertical;startArrow=block;startFill=1;endFill=1;strokeColor=#FF3333;rounded=0;exitX=0.25;exitY=1;exitDx=0;exitDy=0;entryX=0.5;entryY=0;entryDx=0;entryDy=0;" parent="1" source="6" target="13" edge="1">
                    <mxGeometry width="100" relative="1" as="geometry">
                        <mxPoint x="820" y="200" as="sourcePoint"/>
                        <mxPoint x="667" y="330" as="targetPoint"/>
                    </mxGeometry>
                </mxCell>
                <mxCell id="34" value="" style="edgeStyle=orthogonalEdgeStyle;html=1;endArrow=block;elbow=vertical;startArrow=block;startFill=1;endFill=1;strokeColor=#FF3333;rounded=0;exitX=0.25;exitY=1;exitDx=0;exitDy=0;entryX=0.5;entryY=0;entryDx=0;entryDy=0;" parent="1" source="4" target="13" edge="1">
                    <mxGeometry width="100" relative="1" as="geometry">
                        <mxPoint x="310" y="200" as="sourcePoint"/>
                        <mxPoint x="667" y="330" as="targetPoint"/>
                    </mxGeometry>
                </mxCell>
                <mxCell id="35" value="              지표 수집기 ( Cloud Watch )" style="fillColor=none;strokeColor=#FF8000;verticalAlign=top;fontStyle=0;fontColor=#5A6C86;align=left;" parent="1" vertex="1">
                    <mxGeometry x="380" y="470" width="200" height="70" as="geometry"/>
                </mxCell>
                <mxCell id="36" value="" style="shape=image;verticalLabelPosition=bottom;verticalAlign=top;imageAspect=0;aspect=fixed;image=data:image/svg+xml,PHN2ZyB3aWR0aD0iNjRweCIgaGVpZ2h0PSI2NHB4IiB2aWV3Qm94PSIwIDAgNjQgNjQiIHZlcnNpb249IjEuMSIgeG1sbnM9Imh0dHA6Ly93d3cudzMub3JnLzIwMDAvc3ZnIiB4bWxuczp4bGluaz0iaHR0cDovL3d3dy53My5vcmcvMTk5OS94bGluayI+CiAgICA8dGl0bGU+SWNvbi1BcmNoaXRlY3R1cmUvNDgvQXJjaF9BbWF6b24tTWFuYWdlZC1TdHJlYW1pbmctZm9yLUFwYWNoZS1LYWZrYV80ODwvdGl0bGU+CiAgICA8ZyBpZD0iSWNvbi1BcmNoaXRlY3R1cmUvNDgvQXJjaF9BbWF6b24tTWFuYWdlZC1TdHJlYW1pbmctZm9yLUFwYWNoZS1LYWZrYV80OCIgc3Ryb2tlPSJub25lIiBzdHJva2Utd2lkdGg9IjEiIGZpbGw9Im5vbmUiIGZpbGwtcnVsZT0iZXZlbm9kZCI+CiAgICAgICAgPGcgaWQ9Ikljb24tQXJjaGl0ZWN0dXJlLUJHLzQ4L0FuYWx5dGljcyIgZmlsbD0iIzhDNEZGRiI+CiAgICAgICAgICAgIDxyZWN0IGlkPSJSZWN0YW5nbGUiIHg9IjAiIHk9IjAiIHdpZHRoPSI2NCIgaGVpZ2h0PSI2NCI+PC9yZWN0PgogICAgICAgIDwvZz4KICAgICAgICA8cGF0aCBkPSJNMjkuMzcyOTE0OSwyOS42MDgxMTk2IEwyOS4zNzI5MTQ5LDIyLjQ5MDQ3NTUgTDMwLjkzNjQ1NzQsMjIuNDkwNDc1NSBMMzAuOTM2NDU3NCwyNS42NTMzMTczIEwzMy4wNDY1NDgxLDIyLjQ5MDQ3NTUgTDM0Ljc3NzExODksMjIuNDkwNDc1NSBMMzIuMzMxOTgzNCwyNS44MTgzMDkxIEwzNC45Nzg3Mzg4LDI5LjYwODExOTYgTDMzLjEyNDYyNjQsMjkuNjA4MTE5NiBMMzAuOTM2NDU3NCwyNi4xNjgyOTE2IEwzMC45MzY0NTc0LDI5LjYwODExOTYgTDI5LjM3MjkxNDksMjkuNjA4MTE5NiBaIE01MywzOS4zNzc2MzExIEw1Mi40NzYxODM2LDM5LjgzNjYwODIgQzUwLjI5MTk2OCw0MS43NzA1MTE1IDQ2LjU5NzU3OTgsNDEuNzY5NTExNSA0NC40MDk0MTA5LDM5LjgzMjYwODQgTDQzLjM2NTczMTQsMzguOTE4NjU0MSBDNDEuOTMwNjcyMSwzNy42NDg3MTc2IDM5LjMyNDQzODMsMzcuNjQ3NzE3NiAzNy44OTMzMzI0LDM4LjkxNDY1NDMgTDM2Ljg0MjczNDUsMzkuODM1NjA4MiBDMzQuNjYwNDk1Niw0MS43Njk1MTE1IDMwLjk2MjE1NDEsNDEuNzY4NTExNiAyOC43NzU5NjE4LDM5LjgzMjYwODQgTDI3LjczMjI4MjMsMzguOTE4NjU0MSBDMjYuMjk2MjM0NywzNy42NDc3MTc2IDIzLjY5MDk4OTMsMzcuNjQ5NzE3NSAyMi4yNjA4NzE3LDM4LjkxNDY1NDMgTDIxLjIwODI5NzIsMzkuODM2NjA4MiBDMjAuMTE4MTY2LDQwLjgwMTU1OTkgMTguNjQ4NTE1MSw0MS4yODU1MzU3IDE3LjE3OTg1MjUsNDEuMjg1NTM1NyBDMTUuNzA5MjEzMiw0MS4yODU1MzU3IDE0LjIzNzU4NTYsNDAuODAxNTU5OSAxMy4xNDI1MTI4LDM5LjgzMjYwODQgTDEyLjYyMjY0OTcsMzkuMzc3NjMxMSBMMTMuOTE1Mzg5MSwzNy44NjQ3MDY4IEwxNC40NDAxOTM4LDM4LjMyMzY4MzggQzE1Ljg3NDI2NDgsMzkuNTkyNjIwNCAxOC40Nzk1MTAyLDM5LjU5MzYyMDMgMTkuOTExNjA0NSwzOC4zMjc2ODM2IEwyMC45NjMxOTA2LDM3LjQwNTcyOTcgQzIzLjE0NTQyOTYsMzUuNDczODI2MyAyNi44NDI3ODI4LDM1LjQ3MzgyNjMgMjkuMDI4OTc1LDM3LjQwOTcyOTUgTDMwLjA3MzY0MjksMzguMzIzNjgzOCBDMzEuNTA5NjkwNSwzOS41OTQ2MjAzIDM0LjExNDkzNTksMzkuNTkyNjIwNCAzNS41NDUwNTM1LDM4LjMyNzY4MzYgTDM2LjU5NjYzOTcsMzcuNDA2NzI5NyBDMzguNzc4ODc4NiwzNS40NzI4MjY0IDQyLjQ3NTI0MzUsMzUuNDczODI2MyA0NC42NjM0MTI0LDM3LjQwOTcyOTUgTDQ1LjcwNjEwMzYsMzguMzIzNjgzOCBDNDcuMTQxMTYyOSwzOS41OTI2MjA0IDQ5Ljc0NjQwODMsMzkuNTkzNjIwMyA1MS4xNzg1MDI2LDM4LjMyNzY4MzYgTDUxLjcwNzI2MDYsMzcuODY0NzA2OCBMNTMsMzkuMzc3NjMxMSBaIE01MS4wODQ2MTA5LDQ4LjU3OTE3MSBMNTIuMzc3MzUwMyw1MC4wOTEwOTU0IEw1MS44NTM1MzM5LDUwLjU1MDA3MjUgQzUwLjc2MjQxNDQsNTEuNTE2MDI0MiA0OS4yOTI3NjM1LDUyIDQ3LjgyNDEwMDksNTIgQzQ2LjM1MzQ2MTYsNTIgNDQuODgwODQ1Niw1MS41MTUwMjQyIDQzLjc4Nzc0OTUsNTAuNTQ2MDcyNyBMNDIuNzQzMDgxNyw0OS42MzMxMTgzIEM0MS4zMDcwMzQsNDguMzYxMTgxOSAzOC43MDE3ODg2LDQ4LjM2MzE4MTggMzcuMjcxNjcxLDQ5LjYyOTExODUgTDM2LjIyMDA4NDksNTAuNTUwMDcyNSBDMzQuMDM4ODM0Miw1Mi40ODE5NzU5IDMwLjM0MDQ5MjcsNTIuNDgyOTc1OSAyOC4xNTQzMDA1LDUwLjU0NjA3MjcgTDI3LjExMDYyMSw0OS42MzIxMTg0IEMyNS42NzU1NjE3LDQ4LjM2MjE4MTkgMjMuMDY5MzI3OSw0OC4zNjIxODE5IDIxLjYzODIyMiw0OS42MjkxMTg1IEwyMC41ODY2MzU4LDUwLjU1MDA3MjUgQzE4LjQwNDM5NjksNTIuNDgyOTc1OSAxNC43MDgwMzIsNTIuNDgyOTc1OSAxMi41MTk4NjMxLDUwLjU0NjA3MjcgTDEyLDUwLjA5MTA5NTQgTDEzLjI5MjczOTQsNDguNTc5MTcxIEwxMy44MTc1NDQxLDQ5LjAzODE0ODEgQzE1LjI1MTYxNTEsNTAuMzA3MDg0NiAxNy44NTc4NDg4LDUwLjMwODA4NDYgMTkuMjg5OTQzMSw0OS4wNDIxNDc5IEwyMC4zNDA1NDA5LDQ4LjEyMTE5MzkgQzIyLjUyMjc3OTksNDYuMTg4MjkwNiAyNi4yMjAxMzMxLDQ2LjE4NzI5MDYgMjguNDA3MzEzNyw0OC4xMjQxOTM4IEwyOS40NTA5OTMyLDQ5LjAzODE0ODEgQzMwLjg4NTA2NDEsNTAuMzA3MDg0NiAzMy40OTAzMDk1LDUwLjMwODA4NDYgMzQuOTIyNDAzOCw0OS4wNDIxNDc5IEwzNS45NzQ5NzgzLDQ4LjEyMDE5NCBDMzguMTU3MjE3Miw0Ni4xODgyOTA2IDQxLjg1NDU3MDQsNDYuMTg3MjkwNiA0NC4wNDA3NjI3LDQ4LjEyNDE5MzggTDQ1LjA4NDQ0MjIsNDkuMDM4MTQ4MSBDNDYuNTE5NTAxNSw1MC4zMDcwODQ2IDQ5LjEyMzc1ODYsNTAuMzA4MDg0NiA1MC41NTY4NDEyLDQ5LjA0MjE0NzkgTDUxLjA4NDYxMDksNDguNTc5MTcxIFogTTUxLjA4NDYxMDksNDMuNTY1NDIxNyBMNTIuMzc3MzUwMyw0NS4wNzczNDYxIEw1MS44NTM1MzM5LDQ1LjUzNjMyMzIgQzUwLjc2MjQxNDQsNDYuNTAyMjc0OSA0OS4yOTI3NjM1LDQ2Ljk4NTI1MDcgNDcuODI0MTAwOSw0Ni45ODUyNTA3IEM0Ni4zNTM0NjE2LDQ2Ljk4NTI1MDcgNDQuODgwODQ1Niw0Ni41MDEyNzQ5IDQzLjc4Nzc0OTUsNDUuNTMyMzIzNCBMNDIuNzQzMDgxNyw0NC42MTkzNjkgQzQxLjMwNzAzNCw0My4zNDg0MzI2IDM4LjcwMTc4ODYsNDMuMzQ5NDMyNSAzNy4yNzE2NzEsNDQuNjE1MzY5MiBMMzYuMjIwMDg0OSw0NS41MzYzMjMyIEMzNC4wMzg4MzQyLDQ3LjQ2OTIyNjUgMzAuMzQwNDkyNyw0Ny40NjkyMjY1IDI4LjE1NDMwMDUsNDUuNTMyMzIzNCBMMjcuMTEwNjIxLDQ0LjYxODM2OTEgQzI1LjY3NTU2MTcsNDMuMzQ4NDMyNiAyMy4wNjkzMjc5LDQzLjM0NjQzMjcgMjEuNjM4MjIyLDQ0LjYxNTM2OTIgTDIwLjU4NjYzNTgsNDUuNTM2MzIzMiBDMTguNDA0Mzk2OSw0Ny40NjkyMjY1IDE0LjcwODAzMiw0Ny40NjkyMjY1IDEyLjUxOTg2MzEsNDUuNTMyMzIzNCBMMTIsNDUuMDc3MzQ2MSBMMTMuMjkyNzM5NCw0My41NjU0MjE3IEwxMy44MTc1NDQxLDQ0LjAyNDM5ODggQzE1LjI1MTYxNTEsNDUuMjk0MzM1MyAxNy44NTc4NDg4LDQ1LjI5NDMzNTMgMTkuMjg5OTQzMSw0NC4wMjczOTg2IEwyMC4zNDA1NDA5LDQzLjEwNzQ0NDYgQzIyLjUyMzc2ODIsNDEuMTcyNTQxNCAyNi4yMjIxMDk3LDQxLjE3NDU0MTMgMjguNDA3MzEzNyw0My4xMTA0NDQ1IEwyOS40NTA5OTMyLDQ0LjAyNDM5ODggQzMwLjg4NTA2NDEsNDUuMjkzMzM1MyAzMy40OTAzMDk1LDQ1LjI5NDMzNTMgMzQuOTIyNDAzOCw0NC4wMjczOTg2IEwzNS45NzQ5NzgzLDQzLjEwNjQ0NDcgQzM4LjE1NzIxNzIsNDEuMTczNTQxMyA0MS44NTQ1NzA0LDQxLjE3MjU0MTQgNDQuMDQwNzYyNyw0My4xMTA0NDQ1IEw0NS4wODQ0NDIyLDQ0LjAyNDM5ODggQzQ2LjUxOTUwMTUsNDUuMjk0MzM1MyA0OS4xMjM3NTg2LDQ1LjI5NDMzNTMgNTAuNTU2ODQxMiw0NC4wMjczOTg2IEw1MS4wODQ2MTA5LDQzLjU2NTQyMTcgWiBNMjAuMTQ1ODM5NCwyOS45OTkxIEMyMC45NjMxOTA2LDI5Ljk5OTEgMjEuNjI4MzM4NiwzMC42NzIwNjY0IDIxLjYyODMzODYsMzEuNDk5MDI1IEMyMS42MjgzMzg2LDMyLjMyNTk4MzcgMjAuOTYzMTkwNiwzMi45OTg5NTAxIDIwLjE0NTgzOTQsMzIuOTk4OTUwMSBDMTkuMzI4NDg4MSwzMi45OTg5NTAxIDE4LjY2MzM0MDEsMzIuMzI1OTgzNyAxOC42NjMzNDAxLDMxLjQ5OTAyNSBDMTguNjYzMzQwMSwzMC42NzIwNjY0IDE5LjMyODQ4ODEsMjkuOTk5MSAyMC4xNDU4Mzk0LDI5Ljk5OTEgTDIwLjE0NTgzOTQsMjkuOTk5MSBaIE0zMi4wMDU4MzM2LDEzLjk5OTkgQzMyLjgyMzE4NDgsMTMuOTk5OSAzMy40ODgzMzI5LDE0LjY3Mjg2NjQgMzMuNDg4MzMyOSwxNS40OTk4MjUgQzMzLjQ4ODMzMjksMTYuMzI2NzgzNyAzMi44MjMxODQ4LDE2Ljk5OTc1IDMyLjAwNTgzMzYsMTYuOTk5NzUgQzMxLjE4ODQ4MjMsMTYuOTk5NzUgMzAuNTIzMzM0MywxNi4zMjY3ODM3IDMwLjUyMzMzNDMsMTUuNDk5ODI1IEMzMC41MjMzMzQzLDE0LjY3Mjg2NjQgMzEuMTg4NDgyMywxMy45OTk5IDMyLjAwNTgzMzYsMTMuOTk5OSBMMzIuMDA1ODMzNiwxMy45OTk5IFogTTQ1LjM0ODMyNzEsMzEuNDk5MDI1IEM0NS4zNDgzMjcxLDMyLjMyNTk4MzcgNDQuNjgzMTc5MSwzMi45OTg5NTAxIDQzLjg2NTgyNzgsMzIuOTk4OTUwMSBDNDMuMDQ4NDc2NSwzMi45OTg5NTAxIDQyLjM4MzMyODUsMzIuMzI1OTgzNyA0Mi4zODMzMjg1LDMxLjQ5OTAyNSBDNDIuMzgzMzI4NSwzMC42NzIwNjY0IDQzLjA0ODQ3NjUsMjkuOTk5MSA0My44NjU4Mjc4LDI5Ljk5OTEgQzQ0LjY4MzE3OTEsMjkuOTk5MSA0NS4zNDgzMjcxLDMwLjY3MjA2NjQgNDUuMzQ4MzI3MSwzMS40OTkwMjUgTDQ1LjM0ODMyNzEsMzEuNDk5MDI1IFogTTMyLjAwNTgzMzYsMTguOTk5NjUgQzMyLjU0MzQ4NjYsMTguOTk5NjUgMzMuMDQ2NTQ4MSwxOC44NjM2NTY4IDMzLjUwMTE4MTIsMTguNjQxNjY3OSBMNDEuMjg5MjQ0LDI5LjE4ODE0MDYgQzQwLjg1MDQyNDMsMjkuNjg3MTE1NiA0MC41NTQ5MTI3LDMwLjMwODA4NDYgNDAuNDU3MDY3OCwzMC45OTkwNSBMMjMuNTU0NTk5NCwzMC45OTkwNSBDMjMuNDU2NzU0NCwzMC4zMDgwODQ2IDIzLjE2MTI0MjksMjkuNjg3MTE1NiAyMi43MjI0MjMxLDI5LjE4ODE0MDYgTDMwLjUxMDQ4NiwxOC42NDE2Njc5IEMzMC45NjUxMTkxLDE4Ljg2MzY1NjggMzEuNDY4MTgwNSwxOC45OTk2NSAzMi4wMDU4MzM2LDE4Ljk5OTY1IEwzMi4wMDU4MzM2LDE4Ljk5OTY1IFogTTIwLjE0NTgzOTQsMzQuOTk4ODUwMSBDMjEuNTIwNjEwNCwzNC45OTg4NTAxIDIyLjcwMDY3OTgsMzQuMTc2ODkxMiAyMy4yNTgwOTk1LDMyLjk5ODk1MDEgTDQwLjc1NDU1NiwzMi45OTg5NTAxIEM0MS4zMTA5ODc0LDM0LjE3Njg5MTIgNDIuNDkxMDU2OCwzNC45OTg4NTAxIDQzLjg2NTgyNzgsMzQuOTk4ODUwMSBDNDUuNzczMzEwMiwzNC45OTg4NTAxIDQ3LjMyNDk5MjgsMzMuNDI4OTI4NiA0Ny4zMjQ5OTI4LDMxLjQ5OTAyNSBDNDcuMzI0OTkyOCwyOS41NjkxMjE1IDQ1Ljc3MzMxMDIsMjcuOTk5MiA0My44NjU4Mjc4LDI3Ljk5OTIgQzQzLjU1NjQ3OTYsMjcuOTk5MiA0My4yNjE5NTY0LDI4LjA1NDE5NzMgNDIuOTc2MzI4MiwyOC4xMzExOTM0IEwzNC45NjQ5MDIxLDE3LjI4MzczNTggQzM1LjI3NjIyNywxNi43NTk3NjIgMzUuNDY0OTk4NiwxNi4xNTM3OTIzIDM1LjQ2NDk5ODYsMTUuNDk5ODI1IEMzNS40NjQ5OTg2LDEzLjU2OTkyMTUgMzMuOTEzMzE2LDEyIDMyLjAwNTgzMzYsMTIgQzMwLjA5ODM1MTIsMTIgMjguNTQ2NjY4NiwxMy41Njk5MjE1IDI4LjU0NjY2ODYsMTUuNDk5ODI1IEMyOC41NDY2Njg2LDE2LjE1Mzc5MjMgMjguNzM1NDQwMiwxNi43NTk3NjIgMjkuMDQ2NzY1LDE3LjI4MzczNTggTDIxLjAzNTMzODksMjguMTMxMTkzNCBDMjAuNzQ5NzEwNywyOC4wNTQxOTczIDIwLjQ1NjE3NTksMjcuOTk5MiAyMC4xNDU4Mzk0LDI3Ljk5OTIgQzE4LjIzODM1NywyNy45OTkyIDE2LjY4NjY3NDQsMjkuNTY5MTIxNSAxNi42ODY2NzQ0LDMxLjQ5OTAyNSBDMTYuNjg2Njc0NCwzMy40Mjg5Mjg2IDE4LjIzODM1NywzNC45OTg4NTAxIDIwLjE0NTgzOTQsMzQuOTk4ODUwMSBMMjAuMTQ1ODM5NCwzNC45OTg4NTAxIFoiIGlkPSJBbWF6b24tTWFuYWdlZC1TdHJlYW1pbmctZm9yLUFwYWNoZS1LYWZrYS1JY29uXzQ4X1NxdWlkIiBmaWxsPSIjRkZGRkZGIj48L3BhdGg+CiAgICA8L2c+Cjwvc3ZnPg==;strokeColor=#FF3333;" parent="1" vertex="1">
                    <mxGeometry x="380" y="470" width="40" height="40" as="geometry"/>
                </mxCell>
            </root>
        </mxGraphModel>
    </diagram>
</mxfile>